<?xml version="1.0" encoding="UTF-8"?>
<svg xmlns="http://www.w3.org/2000/svg" xmlns:xlink="http://www.w3.org/1999/xlink" width="28px" height="31px" viewBox="0 0 28 28" version="1.1">
<g id="surface1">
<path style=" stroke:none;fill-rule:nonzero;fill:rgb(0%,0%,0%);fill-opacity:1;" d="M 14 0 C 6.265625 0 0 6.265625 0 14 C 0 21.734375 6.265625 28 14 28 C 21.734375 28 28 21.734375 28 14 C 28 6.265625 21.734375 0 14 0 Z M 14 7 C 14.964844 7 15.75 7.785156 15.75 8.75 C 15.75 9.714844 14.964844 10.5 14 10.5 C 13.035156 10.5 12.25 9.71875 12.25 8.75 C 12.25 7.78125 13.03125 7 14 7 Z M 16.1875 21 L 11.8125 21 C 11.089844 21 10.5 20.414062 10.5 19.6875 C 10.5 18.960938 11.085938 18.375 11.8125 18.375 L 12.6875 18.375 L 12.6875 14.875 L 12.25 14.875 C 11.523438 14.875 10.9375 14.289062 10.9375 13.5625 C 10.9375 12.835938 11.527344 12.25 12.25 12.25 L 14 12.25 C 14.726562 12.25 15.3125 12.835938 15.3125 13.5625 L 15.3125 18.375 L 16.1875 18.375 C 16.914062 18.375 17.5 18.960938 17.5 19.6875 C 17.5 20.414062 16.914062 21 16.1875 21 Z M 16.1875 21 "/>
</g>
</svg>
