<?xml version="1.0" encoding="UTF-8"?>
<svg xmlns="http://www.w3.org/2000/svg" xmlns:xlink="http://www.w3.org/1999/xlink" width="28px" height="31px" viewBox="0 0 28 28" version="1.1">
<g id="surface1">
<path style=" stroke:none;fill-rule:nonzero;fill:rgb(0%,0%,0%);fill-opacity:1;" d="M 15.75 0 C 16.71875 0 17.5 0.785156 17.5 1.75 L 17.5 5.25 C 17.5 6.21875 16.71875 7 15.75 7 L 11.375 7 L 11.375 8.75 L 23.191406 8.75 C 24.96875 8.75 26.441406 10.011719 26.699219 11.726562 L 27.941406 19.910156 C 27.976562 20.167969 28 20.429688 28 20.695312 L 28 24.5 C 28 26.429688 26.429688 28 24.5 28 L 3.5 28 C 1.566406 28 0 26.429688 0 24.5 L 0 20.695312 C 0 20.429688 0.0195312 20.167969 0.0585938 19.910156 L 1.300781 11.726562 C 1.558594 10.011719 3.027344 8.75 4.757812 8.75 L 7.824219 8.75 L 7.824219 7 L 3.449219 7 C 2.535156 7 1.699219 6.21875 1.699219 5.25 L 1.699219 1.75 C 1.699219 0.785156 2.535156 0 3.449219 0 Z M 5.25 2.625 C 4.765625 2.625 4.375 3.015625 4.375 3.5 C 4.375 3.984375 4.765625 4.375 5.25 4.375 L 14 4.375 C 14.480469 4.375 14.875 3.984375 14.875 3.5 C 14.875 3.015625 14.480469 2.625 14 2.625 Z M 4.375 24.5 L 23.625 24.5 C 24.105469 24.5 24.5 24.105469 24.5 23.625 C 24.5 23.144531 24.105469 22.75 23.625 22.75 L 4.375 22.75 C 3.890625 22.75 3.5 23.144531 3.5 23.625 C 3.5 24.105469 3.890625 24.5 4.375 24.5 Z M 6.125 11.8125 C 5.398438 11.8125 4.8125 12.398438 4.8125 13.125 C 4.8125 13.851562 5.398438 14.4375 6.125 14.4375 C 6.851562 14.4375 7.4375 13.851562 7.4375 13.125 C 7.4375 12.398438 6.851562 11.8125 6.125 11.8125 Z M 11.375 14.4375 C 12.101562 14.4375 12.6875 13.851562 12.6875 13.125 C 12.6875 12.398438 12.101562 11.8125 11.375 11.8125 C 10.648438 11.8125 10.0625 12.398438 10.0625 13.125 C 10.0625 13.851562 10.648438 14.4375 11.375 14.4375 Z M 8.75 16.1875 C 8.023438 16.1875 7.4375 16.773438 7.4375 17.5 C 7.4375 18.226562 8.023438 18.8125 8.75 18.8125 C 9.476562 18.8125 10.0625 18.226562 10.0625 17.5 C 10.0625 16.773438 9.476562 16.1875 8.75 16.1875 Z M 16.625 14.4375 C 17.351562 14.4375 17.9375 13.851562 17.9375 13.125 C 17.9375 12.398438 17.351562 11.8125 16.625 11.8125 C 15.898438 11.8125 15.3125 12.398438 15.3125 13.125 C 15.3125 13.851562 15.898438 14.4375 16.625 14.4375 Z M 14 16.1875 C 13.273438 16.1875 12.6875 16.773438 12.6875 17.5 C 12.6875 18.226562 13.273438 18.8125 14 18.8125 C 14.726562 18.8125 15.3125 18.226562 15.3125 17.5 C 15.3125 16.773438 14.726562 16.1875 14 16.1875 Z M 21.875 14.4375 C 22.601562 14.4375 23.1875 13.851562 23.1875 13.125 C 23.1875 12.398438 22.601562 11.8125 21.875 11.8125 C 21.148438 11.8125 20.5625 12.398438 20.5625 13.125 C 20.5625 13.851562 21.148438 14.4375 21.875 14.4375 Z M 19.25 16.1875 C 18.523438 16.1875 17.9375 16.773438 17.9375 17.5 C 17.9375 18.226562 18.523438 18.8125 19.25 18.8125 C 19.976562 18.8125 20.5625 18.226562 20.5625 17.5 C 20.5625 16.773438 19.976562 16.1875 19.25 16.1875 Z M 19.25 16.1875 "/>
</g>
</svg>
