<?xml version="1.0" encoding="UTF-8" standalone="no"?> <svg width="64" height="64" viewBox="0 0 64 64" fill="none" xmlns="http://www.w3.org/2000/svg">
<path d="M61.05 44.48C60.6594 43.4724 59.9724 42.6071 59.0797 41.9983C58.187 41.3894 57.1305 41.0657 56.05 41.07H51.13L53.07 22.93H56C57.4448 22.9338 58.8325 22.3658 59.86 21.35C60.6442 20.589 61.1781 19.6074 61.3906 18.5355C61.6032 17.4637 61.4844 16.3526 61.05 15.35C60.6559 14.3448 59.968 13.4818 59.0761 12.8735C58.1842 12.2652 57.1296 11.9399 56.05 11.94H54.25L54.62 8.52997C54.753 7.08863 54.3125 5.65295 53.394 4.53426C52.4755 3.41557 51.153 2.70407 49.7133 2.55405C48.2736 2.40403 46.8329 2.82759 45.7034 3.73287C44.574 4.63815 43.8469 5.95217 43.68 7.38997L43.19 11.93H25.11L25.48 8.51997C25.6021 7.08368 25.1556 5.65683 24.2363 4.54648C23.3171 3.43613 21.9987 2.73103 20.5649 2.58293C19.131 2.43482 17.6963 2.85555 16.5695 3.75457C15.4428 4.65359 14.714 5.95903 14.54 7.38997L14.05 11.93H7.99997C6.55556 11.9284 5.16869 12.496 4.13997 13.51C3.35699 14.2717 2.82392 15.2533 2.61141 16.3248C2.39889 17.3963 2.51696 18.5071 2.94997 19.51C3.34311 20.5266 4.0374 21.3989 4.9399 22.0101C5.8424 22.6213 6.91006 22.9422 7.99997 22.93H12.87L10.93 41.07H7.99997C6.55513 41.0662 5.16747 41.6342 4.13997 42.65C3.37163 43.4195 2.8477 44.3989 2.63394 45.4651C2.42017 46.5313 2.5261 47.6369 2.93843 48.6432C3.35075 49.6494 4.0511 50.5115 4.95159 51.1211C5.85207 51.7308 6.91256 52.0609 7.99997 52.07H9.74997L9.38997 55.44C9.28408 56.1718 9.32683 56.9174 9.51568 57.6323C9.70452 58.3472 10.0356 59.0167 10.4891 59.6008C10.9426 60.1848 11.5092 60.6714 12.155 61.0315C12.8008 61.3916 13.5126 61.6177 14.2479 61.6964C14.9831 61.7751 15.7267 61.7048 16.4341 61.4895C17.1415 61.2743 17.7982 60.9187 18.3651 60.4439C18.9319 59.969 19.3972 59.3848 19.7331 58.7261C20.069 58.0673 20.2686 57.3476 20.32 56.61L20.81 52.07H38.89L38.53 55.44C38.4523 56.1578 38.517 56.8839 38.7203 57.5767C38.9237 58.2694 39.2617 58.9153 39.715 59.4773C40.1683 60.0392 40.728 60.5063 41.362 60.8517C41.996 61.197 42.692 61.4139 43.41 61.49C43.6132 61.5002 43.8168 61.5002 44.02 61.49C45.3735 61.4897 46.6789 60.9875 47.6837 60.0806C48.6885 59.1737 49.3214 57.9264 49.46 56.58L50 52.07H56C57.4444 52.0716 58.8313 51.5039 59.86 50.49C60.645 49.7275 61.1793 48.744 61.3919 47.6705C61.6045 46.5969 61.4852 45.4841 61.05 44.48V44.48ZM22 41.07L23.94 22.93H42L40.07 41.07H22Z" fill="#FFD164"/>
<path d="M32 41.0699H22L23.94 22.9299H32V11.9299H25.11L25.48 8.51988C25.6021 7.08359 25.1556 5.65674 24.2363 4.54638C23.3171 3.43603 21.9987 2.73094 20.5649 2.58283C19.131 2.43473 17.6963 2.85546 16.5695 3.75448C15.4428 4.65349 14.714 5.95894 14.54 7.38988L14.05 11.9299H7.99997C6.55556 11.9283 5.16869 12.4959 4.13997 13.5099C3.35699 14.2716 2.82392 15.2532 2.61141 16.3247C2.39889 17.3962 2.51696 18.507 2.94997 19.5099C3.34311 20.5265 4.0374 21.3988 4.9399 22.01C5.8424 22.6212 6.91006 22.9421 7.99997 22.9299H12.87L10.93 41.0699H7.99997C6.55513 41.0661 5.16747 41.6341 4.13997 42.6499C3.37163 43.4194 2.8477 44.3988 2.63394 45.465C2.42017 46.5312 2.5261 47.6368 2.93843 48.6431C3.35075 49.6493 4.0511 50.5114 4.95159 51.121C5.85207 51.7307 6.91256 52.0608 7.99997 52.0699H9.74997L9.38997 55.4399C9.28408 56.1717 9.32683 56.9173 9.51568 57.6322C9.70452 58.3472 10.0356 59.0166 10.4891 59.6007C10.9426 60.1847 11.5092 60.6713 12.155 61.0314C12.8008 61.3915 13.5126 61.6176 14.2479 61.6963C14.9831 61.775 15.7267 61.7047 16.4341 61.4894C17.1415 61.2742 17.7982 60.9186 18.3651 60.4438C18.9319 59.9689 19.3972 59.3847 19.7331 58.726C20.069 58.0672 20.2686 57.3475 20.32 56.6099L20.81 52.0699H32V41.0699Z" fill="#F8B64C"/>
<path d="M41.42 44.0702H20.32C20.1101 44.0684 19.9029 44.023 19.7116 43.9366C19.5202 43.8503 19.349 43.7251 19.2088 43.5689C19.0686 43.4127 18.9625 43.2289 18.8973 43.0294C18.832 42.8299 18.8091 42.619 18.83 42.4102L21.09 21.2702C21.1294 20.9024 21.3034 20.5622 21.5784 20.3149C21.8534 20.0675 22.2101 19.9305 22.58 19.9302H43.68C43.8899 19.9319 44.0971 19.9774 44.2884 20.0637C44.4797 20.15 44.651 20.2753 44.7912 20.4315C44.9314 20.5877 45.0375 20.7714 45.1027 20.9709C45.1679 21.1704 45.1908 21.3813 45.17 21.5902L42.91 42.7302C42.8705 43.0979 42.6966 43.4382 42.4216 43.6855C42.1466 43.9328 41.7899 44.0698 41.42 44.0702ZM22 41.0702H40.07L42 22.9302H23.93L22 41.0702Z" fill="black"/>
<path d="M44 61.5199C43.7968 61.5301 43.5932 61.5301 43.39 61.5199C42.672 61.4438 41.9761 61.2269 41.342 60.8816C40.708 60.5362 40.1483 60.0692 39.695 59.5072C39.2417 58.9452 38.9037 58.2993 38.7004 57.6066C38.497 56.9138 38.4323 56.1877 38.51 55.4699L38.87 52.0999H20.81L20.32 56.6399C20.2603 57.3727 20.0542 58.0861 19.714 58.7379C19.3738 59.3897 18.9064 59.9667 18.3394 60.4348C17.7724 60.9028 17.1172 61.2524 16.4128 61.4629C15.7083 61.6734 14.9688 61.7405 14.2379 61.6603C13.5071 61.5801 12.7997 61.3541 12.1577 60.9958C11.5157 60.6374 10.952 60.154 10.5 59.5741C10.0481 58.9942 9.71697 58.3295 9.52631 57.6194C9.33564 56.9093 9.28929 56.1682 9.38999 55.4399L9.74998 52.0699H7.99998C6.91258 52.0608 5.85208 51.7307 4.9516 51.121C4.05112 50.5114 3.35076 49.6493 2.93844 48.6431C2.52611 47.6368 2.42018 46.5312 2.63395 45.465C2.84771 44.3988 3.37164 43.4194 4.13998 42.6499C5.16748 41.6341 6.55514 41.0661 7.99998 41.0699H10.93L12.87 22.9299H7.99998C6.91973 22.9327 5.86392 22.6085 4.97146 21.9998C4.079 21.3912 3.3917 20.5266 2.99998 19.5199C2.56698 18.517 2.44891 17.4062 2.66142 16.3347C2.87393 15.2632 3.407 14.2816 4.18998 13.5199C5.20474 12.5144 6.57149 11.944 7.99998 11.9299H14.05L14.54 7.38988C14.714 5.95894 15.4428 4.65349 16.5695 3.75448C17.6963 2.85546 19.131 2.43473 20.5649 2.58283C21.9987 2.73094 23.3171 3.43603 24.2363 4.54638C25.1556 5.65674 25.6022 7.08359 25.48 8.51988L25.11 11.9299H43.19L43.68 7.38988C43.854 5.95894 44.5828 4.65349 45.7095 3.75448C46.8363 2.85546 48.271 2.43473 49.7049 2.58283C51.1387 2.73094 52.4571 3.43603 53.3763 4.54638C54.2956 5.65674 54.7422 7.08359 54.62 8.51988L54.25 11.9299H56C57.0796 11.9298 58.1342 12.2551 59.0261 12.8634C59.9181 13.4717 60.6059 14.3347 61 15.3399C61.4344 16.3425 61.5532 17.4536 61.3407 18.5255C61.1281 19.5973 60.5942 20.5789 59.81 21.3399C58.7964 22.3472 57.4289 22.9179 56 22.9299H53.07L51.13 41.0699H56C57.0874 41.079 58.1479 41.4091 59.0484 42.0187C59.9489 42.6284 60.6492 43.4904 61.0615 44.4967C61.4739 45.5029 61.5798 46.6085 61.366 47.6748C61.1523 48.741 60.6283 49.7203 59.86 50.4899C58.8313 51.5038 57.4444 52.0715 56 52.0699H50L49.51 56.6099C49.3703 57.9684 48.7274 59.2256 47.7078 60.1341C46.6882 61.0427 45.3656 61.537 44 61.5199ZM19.46 49.0699H40.56C40.7699 49.0716 40.9771 49.1171 41.1684 49.2034C41.3597 49.2897 41.531 49.415 41.6712 49.5712C41.8114 49.7274 41.9175 49.9111 41.9827 50.1106C42.0479 50.3101 42.0708 50.521 42.05 50.7299L41.51 55.7299C41.4752 56.0582 41.5054 56.3901 41.5989 56.7068C41.6924 57.0234 41.8473 57.3185 42.0548 57.5753C42.2624 57.832 42.5185 58.0454 42.8084 58.2032C43.0984 58.361 43.4167 58.4601 43.745 58.4949C44.0733 58.5297 44.4052 58.4995 44.7219 58.406C45.0385 58.3125 45.3336 58.1576 45.5904 57.95C45.8471 57.7425 46.0605 57.4864 46.2183 57.1964C46.3761 56.9064 46.4752 56.5882 46.51 56.2599L47.14 50.3799C47.1794 50.0121 47.3534 49.6719 47.6284 49.4246C47.9034 49.1772 48.2601 49.0402 48.63 49.0399H56C56.6677 49.0378 57.3076 48.7718 57.78 48.2999C58.1316 47.9542 58.3682 47.5087 58.4577 47.0238C58.5472 46.5389 58.4851 46.0383 58.28 45.5899C58.1106 45.1273 57.7983 44.7306 57.3884 44.4573C56.9785 44.184 56.4922 44.0483 56 44.0699H49.46C49.2526 44.064 49.0487 44.0156 48.861 43.9274C48.6732 43.8393 48.5056 43.7135 48.3686 43.5577C48.2316 43.402 48.1282 43.2197 48.0648 43.0222C48.0014 42.8247 47.9793 42.6163 48 42.4099L50.26 21.2699C50.2994 20.9021 50.4734 20.5619 50.7484 20.3146C51.0234 20.0672 51.3801 19.9302 51.75 19.9299H56C56.6677 19.9278 57.3076 19.6618 57.78 19.1899C58.1316 18.8442 58.3682 18.3987 58.4577 17.9138C58.5472 17.4289 58.4851 16.9282 58.28 16.4799C58.1157 16.0117 57.8056 15.6085 57.3952 15.3295C56.9848 15.0505 56.4958 14.9104 56 14.9299H52.58C52.3701 14.9281 52.1629 14.8827 51.9715 14.7963C51.7802 14.71 51.609 14.5848 51.4688 14.4286C51.3286 14.2724 51.2225 14.0887 51.1573 13.8892C51.092 13.6896 51.0691 13.4787 51.09 13.2699L51.63 8.26988C51.695 7.60684 51.4939 6.94514 51.071 6.43035C50.6481 5.91557 50.038 5.58986 49.375 5.52488C48.7119 5.4599 48.0502 5.66098 47.5355 6.08387C47.0207 6.50677 46.695 7.11684 46.63 7.77988L46 13.5899C45.9605 13.9576 45.7866 14.2979 45.5116 14.5452C45.2366 14.7925 44.8799 14.9295 44.51 14.9299H23.44C23.2344 14.9214 23.0326 14.8709 22.8472 14.7816C22.6618 14.6923 22.4966 14.5661 22.3617 14.4106C22.2269 14.2552 22.1252 14.0738 22.063 13.8776C22.0008 13.6815 21.9794 13.4746 22 13.2699L22.54 8.26988C22.5862 7.94256 22.5639 7.60923 22.4747 7.29093C22.3855 6.97264 22.2312 6.67632 22.0217 6.42069C21.8121 6.16506 21.5518 5.95568 21.2571 5.8058C20.9625 5.65591 20.64 5.56877 20.31 5.54988C19.9814 5.50223 19.6465 5.52329 19.3264 5.61172C19.0064 5.70015 18.7082 5.85402 18.4506 6.06362C18.1931 6.27321 17.9819 6.53396 17.8303 6.82938C17.6787 7.12479 17.5901 7.44845 17.57 7.77988L16.94 13.6199C16.9005 13.9876 16.7266 14.3279 16.4516 14.5752C16.1766 14.8225 15.8199 14.9595 15.45 14.9599H7.99998C7.33225 14.962 6.69242 15.228 6.21998 15.6999C5.86836 16.0455 5.63173 16.4911 5.54227 16.976C5.45281 17.4608 5.51486 17.9615 5.71998 18.4099C5.88806 18.8734 6.20003 19.271 6.61027 19.5445C7.0205 19.8179 7.50748 19.953 7.99998 19.9299H14.58C14.7914 19.9296 15.0004 19.974 15.1934 20.0602C15.3864 20.1463 15.5591 20.2723 15.7 20.4299C15.8275 20.5919 15.9201 20.7787 15.9717 20.9784C16.0234 21.1781 16.033 21.3863 16 21.5899L13.77 42.7299C13.7305 43.0976 13.5566 43.4379 13.2816 43.6852C13.0066 43.9325 12.6499 44.0695 12.28 44.0699H7.99998C7.33225 44.072 6.69242 44.338 6.21998 44.8099C5.86836 45.1555 5.63173 45.6011 5.54227 46.086C5.45281 46.5708 5.51486 47.0715 5.71998 47.5199C5.88292 47.989 6.19271 48.3931 6.6034 48.6723C7.01409 48.9515 7.50382 49.0909 7.99998 49.0699H11.46C11.6699 49.0716 11.8771 49.1171 12.0684 49.2034C12.2597 49.2897 12.431 49.415 12.5712 49.5712C12.7114 49.7274 12.8175 49.9111 12.8827 50.1106C12.9479 50.3101 12.9708 50.521 12.95 50.7299L12.41 55.7299C12.3752 56.0582 12.4054 56.3901 12.4989 56.7068C12.5924 57.0234 12.7473 57.3185 12.9548 57.5753C13.1624 57.832 13.4185 58.0454 13.7084 58.2032C13.9984 58.361 14.3167 58.4601 14.645 58.4949C14.9733 58.5297 15.3052 58.4995 15.6219 58.406C15.9385 58.3125 16.2336 58.1576 16.4904 57.95C16.7471 57.7425 16.9605 57.4864 17.1183 57.1964C17.2761 56.9064 17.3752 56.5882 17.41 56.2599L18 50.4099C18.0388 50.0472 18.2085 49.7111 18.4772 49.4644C18.7459 49.2178 19.0953 49.0775 19.46 49.0699Z" fill="black"/>
</svg>
