<?xml version="1.0" encoding="UTF-8"?>
<svg xmlns="http://www.w3.org/2000/svg" xmlns:xlink="http://www.w3.org/1999/xlink" width="28px" height="31px" viewBox="0 0 28 32" version="1.1">
<g id="surface1">
<path style=" stroke:none;fill-rule:nonzero;fill:rgb(0%,0%,0%);fill-opacity:1;" d="M 14 16 C 18.417969 16 22 12.417969 22 8 C 22 3.582031 18.417969 0 14 0 C 9.582031 0 6 3.582031 6 8 C 6 12.417969 9.582031 16 14 16 Z M 17.167969 19 L 10.832031 19 C 4.851562 19 0 23.851562 0 29.832031 C 0 31.027344 0.96875 32 2.167969 32 L 25.835938 32 C 27.03125 32 28 31.03125 28 29.832031 C 28 23.851562 23.148438 19 17.167969 19 Z M 17.167969 19 "/>
</g>
</svg>
