<?xml version="1.0" encoding="UTF-8"?>
<svg xmlns="http://www.w3.org/2000/svg" xmlns:xlink="http://www.w3.org/1999/xlink" width="28px" height="31px" viewBox="0 0 28 28" version="1.1">
<g id="surface1">
<path style=" stroke:none;fill-rule:nonzero;fill:rgb(0%,0%,0%);fill-opacity:1;" d="M 1.75 1.75 C 2.714844 1.75 3.5 2.535156 3.5 3.5 L 3.5 21.875 C 3.5 22.355469 3.890625 22.75 4.375 22.75 L 26.25 22.75 C 27.21875 22.75 28 23.53125 28 24.5 C 28 25.46875 27.21875 26.25 26.25 26.25 L 4.375 26.25 C 1.957031 26.25 0 24.292969 0 21.875 L 0 3.5 C 0 2.535156 0.785156 1.75 1.75 1.75 Z M 8.75 12.25 C 9.71875 12.25 10.5 13.03125 10.5 14 L 10.5 17.5 C 10.5 18.46875 9.71875 19.25 8.75 19.25 C 7.78125 19.25 7 18.46875 7 17.5 L 7 14 C 7 13.03125 7.78125 12.25 8.75 12.25 Z M 15.75 17.5 C 15.75 18.46875 14.96875 19.25 14 19.25 C 13.03125 19.25 12.25 18.46875 12.25 17.5 L 12.25 8.75 C 12.25 7.78125 13.03125 7 14 7 C 14.96875 7 15.75 7.78125 15.75 8.75 Z M 19.25 10.5 C 20.21875 10.5 21 11.28125 21 12.25 L 21 17.5 C 21 18.46875 20.21875 19.25 19.25 19.25 C 18.28125 19.25 17.5 18.46875 17.5 17.5 L 17.5 12.25 C 17.5 11.28125 18.28125 10.5 19.25 10.5 Z M 26.25 17.5 C 26.25 18.46875 25.46875 19.25 24.5 19.25 C 23.53125 19.25 22.75 18.46875 22.75 17.5 L 22.75 5.25 C 22.75 4.285156 23.53125 3.5 24.5 3.5 C 25.46875 3.5 26.25 4.285156 26.25 5.25 Z M 26.25 17.5 "/>
</g>
</svg>
